<?xml version="1.0" encoding="UTF-8"?>
<svg width="192" height="192" viewBox="0 0 192 192" xmlns="http://www.w3.org/2000/svg">
  <defs>
    <linearGradient id="logoGradient" x1="0%" y1="0%" x2="100%" y2="100%">
      <stop offset="0%" style="stop-color:#8b5cf6;stop-opacity:1" />
      <stop offset="50%" style="stop-color:#3b82f6;stop-opacity:1" />
      <stop offset="100%" style="stop-color:#06b6d4;stop-opacity:1" />
    </linearGradient>
  </defs>
  
  <!-- Background -->
  <rect width="192" height="192" fill="#1a1a2e" rx="24"/>
  
  <!-- Main logo shape -->
  <g transform="translate(48, 48)">
    <!-- Shield base -->
    <path d="M48 12 L84 24 L84 60 Q84 84 48 96 Q12 84 12 60 L12 24 Z" 
          fill="url(#logoGradient)" 
          stroke="none"/>
    
    <!-- Inner pattern -->
    <path d="M48 24 L72 32 L72 60 Q72 76 48 84 Q24 76 24 60 L24 32 Z" 
          fill="rgba(255,255,255,0.2)" 
          stroke="none"/>
    
    <!-- Center dot -->
    <circle cx="48" cy="54" r="8" fill="white" opacity="0.9"/>
    
    <!-- Decorative elements -->
    <path d="M36 42 L48 48 L60 42" stroke="white" stroke-width="2" fill="none" opacity="0.7"/>
    <path d="M36 66 L48 60 L60 66" stroke="white" stroke-width="2" fill="none" opacity="0.7"/>
  </g>
  
  <!-- App name -->
  <text x="96" y="156" text-anchor="middle" fill="white" font-family="system-ui, sans-serif" font-size="18" font-weight="bold">
    Loggin'
  </text>
</svg>